<?xml version="1.0" encoding="UTF-8"?>
<svg id="Layer_2" data-name="Layer 2" xmlns="http://www.w3.org/2000/svg" viewBox="0 0 290.22 38.65">
  <defs>
    <style>
      .cls-1 {
        fill: #090d38;
      }
    </style>
  </defs>
  <g id="Layer_1-2" data-name="Layer 1">
    <g>
      <path class="cls-1" d="m79.75,17.34c-1.58-.34-2.31-.43-2.31-1.19,0-.69.52-1.39,2.26-1.39,1.83,0,2.35.73,2.58,1.67h3.93c-.27-2.76-1.99-5.3-6.51-5.3-3.04,0-6.16,1.69-6.16,5.21,0,3.31,2.67,4.27,5.27,4.82,2.67.57,3.63.64,3.63,1.58,0,.85-.71,1.35-2.28,1.35-2.03,0-2.74-.62-3.1-1.94h-3.93c.32,2.72,2.17,5.57,7.05,5.57,2.56,0,6.16-1.23,6.16-5.14,0-3.26-2.12-4.27-6.6-5.22Zm21.37-2.22v-3.7h-11v15.98h11v-3.7h-7.12v-2.51h6.48v-3.7h-6.48v-2.37h7.12Zm15.11,12.28h4.11l-5.8-15.98h-4.89l-5.8,15.98h4.11l1.14-3.31h5.98l1.14,3.31Zm-5.85-7.01l1.71-4.98,1.71,4.98h-3.42Zm22.35,7.01h4.75l-4.2-5.91c2.05-.61,3.39-2.59,3.2-4.73,0-3.33-2.1-5.34-5.48-5.34h-7.12v15.98h3.88v-5.55h1.21l3.76,5.55Zm-.18-10.59c0,1.1-.64,1.64-1.99,1.64h-2.81v-3.33h2.81c1.31,0,1.99.57,1.99,1.69h0Zm15.5,10.89c3.67.1,6.91-2.37,7.79-5.94h-4.15c-.64,1.42-2.08,2.3-3.63,2.24-2.35.06-4.31-1.79-4.37-4.14,0-.15,0-.3.01-.45-.18-2.34,1.57-4.39,3.91-4.58.15-.01.3-.02.45-.01,1.55-.06,2.99.82,3.63,2.24h4.15c-.87-3.57-4.11-6.04-7.79-5.94-4.46-.12-8.17,3.4-8.29,7.86,0,.14,0,.29,0,.43-.12,4.46,3.4,8.17,7.86,8.29.14,0,.29,0,.43,0h0Zm21.57-16.28v5.98h-6.14v-5.98h-3.88v15.98h3.88v-6.3h6.14v6.3h3.88v-15.98h-3.88Zm22.49,5.91c-1.57-.34-2.31-.43-2.31-1.19,0-.69.52-1.39,2.26-1.39,1.83,0,2.35.73,2.58,1.67h3.93c-.27-2.76-1.99-5.3-6.51-5.3-3.04,0-6.16,1.69-6.16,5.2,0,3.31,2.67,4.27,5.27,4.82,2.67.57,3.63.64,3.63,1.58,0,.85-.71,1.35-2.28,1.35-2.03,0-2.74-.62-3.1-1.94h-3.93c.32,2.72,2.17,5.57,7.05,5.57,2.56,0,6.16-1.23,6.16-5.14,0-3.26-2.12-4.27-6.6-5.22h0Zm21.92-5.91h-12.58v3.7h4.34v12.28h3.88v-12.29h4.36v-3.7Zm13.06,15.98h4.11l-5.8-15.98h-4.89l-5.8,15.98h4.11l1.14-3.31h5.98l1.14,3.31Zm-5.85-7.01l1.71-4.98,1.71,4.98h-3.42Zm23.22-8.97h-12.58v3.7h4.34v12.28h3.88v-12.29h4.36v-3.7Zm3.54,15.98h3.88v-15.98h-3.88v15.98Zm16.12-16.28c-4.51-.1-8.25,3.48-8.35,7.99,0,.1,0,.2,0,.3-.06,4.51,3.54,8.23,8.06,8.29.1,0,.2,0,.3,0,4.51.1,8.25-3.48,8.35-7.99,0-.1,0-.2,0-.3.06-4.51-3.54-8.23-8.06-8.29-.1,0-.19,0-.29,0h0Zm0,3.7c2.41-.04,4.39,1.88,4.43,4.29,0,.1,0,.2,0,.3.13,2.41-1.72,4.46-4.13,4.58-.1,0-.2,0-.3,0-2.41.04-4.39-1.88-4.43-4.29,0-.1,0-.2,0-.3-.13-2.41,1.72-4.46,4.13-4.58.1,0,.21,0,.31,0h0Zm22.21-3.4v6.69l.3,3.38-5.98-10.07h-4.41v15.98h3.88v-6.69l-.32-3.38,6,10.07h4.41v-15.98h-3.88Z"/>
      <path class="cls-1" d="m43.93,0c-.94,0-12.72,7.81-13.41,7.81S17.77,0,17.01,0,.59,9.12.27,9.67-.13,28.36.27,28.99s15.9,9.67,16.73,9.66,12.73-7.74,13.52-7.74,12.79,7.75,13.42,7.75,16.42-9.18,16.73-9.66.31-18.78,0-19.32S44.88,0,43.93,0Zm10.21,25.21c-.37.6-9.51,5.89-10.2,5.89s-6.84-3.5-6.86-3.96,10.44-6.63,10.57-7.1-4.82-3.43-5.34-3.42-13,7.44-13,7.44c-.33.12-.64.3-.91.52,0,0-10.53,6.54-11.39,6.52s-9.93-5.25-10.21-5.89-.29-11.3,0-11.78,9.42-5.86,10.2-5.89,7.05,3.6,7.01,4.05-10.13,6.11-10.28,6.63,4.64,3.63,5.01,3.71,24.36-14.38,25.2-14.38,9.9,5.26,10.2,5.89.37,11.17,0,11.77Z"/>
    </g>
  </g>
</svg>